{"title":"Ritter Rost - Eisenhart &amp; Vol Verbeult 2013 BRRip X264 AC3 -","uid":8906385,"size":988800368,"categoryP":"video","categoryS":"movies","magnet":"?xt=urn:btih:59bbcd3e747c72c24bcc711a6facbbb3b0ebe0d0&amp;dn=Ritter+Rost+-+Eisenhart+%26amp%3B+Vol+Verbeult+2013+BRRip+X264+AC3+-&amp;tr=udp%3A%2F%2Ftracker.openbittorrent.com%3A80&amp;tr=udp%3A%2F%2Fopen.demonii.com%3A1337&amp;tr=udp%3A%2F%2Ftracker.coppersurfer.tk%3A6969&amp;tr=udp%3A%2F%2Fexodus.desync.com%3A6969","seeders":1,"leechers":0,"uploader":"TeX","files":3,"time":1378916583,"description":"[img]http://i.imgur.com/FWfpPCq.jpg[/img]\n\n &lt;a href=&quot;\nhttp://www.imdb.com/title/tt2408734/&quot; rel=&quot;nofollow&quot; target=&quot;_NEW&quot;&gt;\nhttp://www.imdb.com/title/tt2408734/&lt;/a&gt;\n\nSource: Bluray\nSample: Yes\nCodec: X264\nContainer: MKV\nAudio: AC3 @ 2CH English\n\nVideo\nID : 1\nFormat : AVC\nFormat/Info : Advanced Video Codec\nFormat profile : &lt;a class=&quot;__cf_email__&quot; href=&quot;/cdn-cgi/l/email-protection&quot; data-cfemail=&quot;1159787679515d223f21&quot;&gt;[email&amp;#160;protected]&lt;/a&gt;&lt;script cf-hash='f9e31' type=&quot;text/javascript&quot;&gt;\n/* &lt;![CDATA[ */!function(){try{var t=&quot;currentScript&quot;in document?document.currentScript:function(){for(var t=document.getElementsByTagName(&quot;script&quot;),e=t.length;e--;)if(t[e].getAttribute(&quot;cf-hash&quot;))return t[e]}();if(t&amp;&amp;t.previousSibling){var e,r,n,i,c=t.previousSibling,a=c.getAttribute(&quot;data-cfemail&quot;);if(a){for(e=&quot;&quot;,r=parseInt(a.substr(0,2),16),n=2;a.length-n;n+=2)i=parseInt(a.substr(n,2),16)^r,e+=String.fromCharCode(i);e=document.createTextNode(e),c.parentNode.replaceChild(e,c)}}}catch(u){}}();/* ]]&gt; */&lt;/script&gt;\nFormat settings, CABAC : Yes\nFormat settings, ReFrames : 4 frames\nCodec ID : V_MPEG4/ISO/AVC\nDuration : 1h 23mn\nBit rate : 1 400 Kbps\nWidth : 720 pixels\nHeight : 400 pixels\nDisplay aspect ratio : 16:9\nFrame rate mode : Constant\nFrame rate : 23.976 fps\nColor space : YUV\nChroma subsampling : 4:2:0\nBit depth : 8 bits\nScan type : Progressive\nBits/(Pixel*Frame) : 0.203\nStream size : 825 MiB (88%)\nWriting library : x264 core 120\nLanguage : English\nDefault : Yes\nForced : No\nColor primaries : BT.709\nTransfer characteristics : BT.709\nMatrix coefficients : BT.709\n\nAudio\nID : 2\nFormat : AC-3\nFormat/Info : Audio Coding 3\nMode extension : CM (complete main)\nFormat settings, Endianness : Big\nCodec ID : A_AC3\nDuration : 1h 23mn\nBit rate mode : Constant\nBit rate : 160 Kbps\nChannel(s) : 2 channels\nChannel positions : Front: L R\nSampling rate : 48.0 KHz\nBit depth : 16 bits\nCompression mode : Lossy\nStream size : 96.1 MiB (10%)\nLanguage : English\nDefault : Yes\nForced : No\n\n[img]http://img856.imageshack.us/img856/2041/45rf.png[/img]\n[img]http://img443.imageshack.us/img443/4135/z35q.png[/img]\n[img]http://img202.imageshack.us/img202/4875/7n10.png[/img]\n[img]http://img826.imageshack.us/img826/2816/3rbq.png[/img]","torrent":{"xt":"urn:btih:59bbcd3e747c72c24bcc711a6facbbb3b0ebe0d0","amp;dn":"Ritter+Rost+-+Eisenhart+%26amp%3B+Vol+Verbeult+2013+BRRip+X264+AC3+-","amp;tr":["udp%3A%2F%2Ftracker.openbittorrent.com%3A80","udp%3A%2F%2Fopen.demonii.com%3A1337","udp%3A%2F%2Ftracker.coppersurfer.tk%3A6969","udp%3A%2F%2Fexodus.desync.com%3A6969"],"infoHash":"59bbcd3e747c72c24bcc711a6facbbb3b0ebe0d0","infoHashBuffer":{"type":"Buffer","data":[89,187,205,62,116,124,114,194,75,204,113,26,111,172,187,179,176,235,224,208]},"announce":[],"urlList":[]}}